<svg id="visual" viewBox="0 0 900 600" width="900" height="600" xmlns="http://www.w3.org/2000/svg" xmlns:xlink="http://www.w3.org/1999/xlink" version="1.1"><rect x="0" y="0" width="900" height="600" fill="#081425"></rect><path d="M0 320L180 377L360 354L540 383L720 342L900 368L900 601L720 601L540 601L360 601L180 601L0 601Z" fill="#14243d"></path><path d="M0 442L180 410L360 394L540 431L720 433L900 449L900 601L720 601L540 601L360 601L180 601L0 601Z" fill="#121c32"></path><path d="M0 501L180 501L360 501L540 447L720 472L900 496L900 601L720 601L540 601L360 601L180 601L0 601Z" fill="#0f1428"></path><path d="M0 552L180 537L360 500L540 505L720 532L900 529L900 601L720 601L540 601L360 601L180 601L0 601Z" fill="#0a091e"></path></svg>