<svg id="visual" viewBox="0 0 960 540" width="960" height="540" xmlns="http://www.w3.org/2000/svg" xmlns:xlink="http://www.w3.org/1999/xlink" version="1.1"><rect x="0" y="0" width="960" height="540" fill="#FFFFFF"></rect><defs><linearGradient id="grad1_0" x1="43.8%" y1="0%" x2="100%" y2="100%"><stop offset="14.444444444444446%" stop-color="#ffffff" stop-opacity="1"></stop><stop offset="85.55555555555554%" stop-color="#ffffff" stop-opacity="1"></stop></linearGradient></defs><defs><linearGradient id="grad2_0" x1="0%" y1="0%" x2="56.3%" y2="100%"><stop offset="14.444444444444446%" stop-color="#ffffff" stop-opacity="1"></stop><stop offset="85.55555555555554%" stop-color="#ffffff" stop-opacity="1"></stop></linearGradient></defs><g transform="translate(960, 0)"><path d="M0 270C-34.2 265 -68.3 260 -102.9 248.5C-137.6 237 -172.7 218.9 -190.9 190.9C-209.1 162.9 -210.4 124.9 -220.8 91.5C-231.2 58 -250.6 29 -270 0L0 0Z" fill="#f6f7fa"></path></g><g transform="translate(0, 540)"><path d="M0 -270C32.9 -254.1 65.7 -238.3 91.1 -219.9C116.4 -201.5 134.3 -180.5 162.6 -162.6C191 -144.7 229.8 -129.9 249.4 -103.3C269.1 -76.7 269.5 -38.4 270 0L0 0Z" fill="#f6f7fa"></path></g></svg>